<svg 
    xmlns="http://www.w3.org/2000/svg" 
    viewBox="0 -10 274 300"
    preserveAspectRatio="xMidYMid meet"
    width="274"
    height="300">
    <g>
        <path fill="#ea5141" d="M105.678 54.115c-1.97 4.431-3.939 9.848-6.401 16.25-6.894 3.94-41.365 24.622-50.23 62.54-.492 2.462 0 4.432 1.97 6.402.986.985 2.463 1.477 3.94 1.477.985 0 1.477 0 2.462-.492l30.532-13.296c-.493 8.864-.985 18.712-.985 29.546v3.94c0 16.25 0 31.516 6.894 38.902 2.462 2.463 5.91 3.94 9.356 3.94 6.402 0 12.804-1.477 18.22-2.955 4.433-.985 8.864-2.462 12.312-2.462s7.879.985 12.31 2.462c5.417 1.478 11.82 2.955 18.22 2.955 3.448 0 6.895-1.477 9.357-3.94 6.894-6.894 6.894-22.652 6.894-38.902v-3.94c0-10.834-.492-20.682-.985-29.546l30.532 13.296c.985.492 1.477.492 2.462.492 1.477 0 2.955-.492 3.94-1.477 1.97-1.478 2.462-3.94 1.97-6.402-9.357-37.918-43.828-58.6-50.23-62.54-2.462-6.402-4.432-11.819-6.401-16.25-2.955-6.895-4.925-11.819-4.925-15.759 0-16.743 0-35.948-23.637-35.948-10.834 0-16.743 3.94-19.697 10.342-8.372-3.94-17.728-3.94-18.713-3.94-3.447 0-5.91 2.955-5.91 6.402s2.955 5.909 6.402 5.909c2.955 0 10.834.492 15.758 3.94-.492 4.432-.492 8.863-.492 13.788 0 3.447-1.97 8.371-4.925 15.266m-40.38 68.941c7.387-15.758 19.206-27.084 28.562-33.978q-2.216 10.341-4.432 23.637zm137.884 0-24.622-10.834q-1.478-13.295-4.432-23.637c9.356 6.894 21.667 18.713 29.054 34.471M134.24 14.72c9.356 0 10.834 3.447 10.834 23.637 0 6.402 2.462 12.804 5.909 20.683 6.894 16.743 17.728 41.857 17.728 97.503v3.94c0 10.833 0 26.591-3.447 30.038h-.493c-4.924 0-10.341-1.477-15.265-2.462-4.925-1.477-10.342-2.462-15.266-2.462s-10.341 1.477-15.266 2.462c-4.924 1.478-10.34 2.462-15.265 2.462h-.493c-3.447-3.447-3.447-19.697-3.447-30.038v-3.94c0-55.646 10.834-80.76 17.728-97.503 3.447-7.88 5.91-14.28 5.91-20.683-.493-20.682 1.477-23.637 10.833-23.637m-14.28 192.544s-3.448 1.97-9.357 1.97-9.356-1.97-9.356-1.97c-2.955-1.477-6.895-.492-8.372 2.463-1.477 2.954-.492 6.894 2.462 8.371.493.492 6.402 3.447 15.266 3.447s14.773-2.955 15.266-3.447c2.954-1.477 3.939-5.417 2.462-8.371-1.478-3.448-5.417-4.432-8.372-2.463m46.782 0s-3.447 1.97-9.356 1.97-9.357-1.97-9.357-1.97c-2.954-1.477-6.894-.492-8.371 2.463-1.477 2.954-.493 6.894 2.462 8.371.492.492 6.402 3.447 15.266 3.447s14.773-2.955 15.265-3.447c2.955-1.477 3.94-5.417 2.463-8.371-1.478-3.448-5.417-4.432-8.372-2.463"/>
        <path fill="#787c80" d="M31.565 275.322h-4.95l-18.04-19.75 16.72-18.75h4.73l-18.09 17.21zm-24.97 0h-3.74v-38.5h3.74zm45.32.77-17.49-39.27h4.13l15.01 34.21h.33l12.6-34.21h4.12l-17.49 39.27zm59.57-39.27h3.96v38.5h-3.74v-35.31h-.33l-13.31 25.52h-1.71l-15.12-22.5h-.33l1.21 32.29h-3.74l1.37-39.27h1.1l17.33 25.74h.33zm30.36 38.5h-12.1v-38.5h12.1q6.38 0 11.11 2.42 4.73 2.42 7.37 6.74 2.64 4.31 2.64 10.09 0 5.77-2.64 10.09t-7.37 6.74q-4.73 2.42-11.11 2.42m0-37.18h-8.36v35.86h8.36q7.97 0 12.46-4.73 4.48-4.73 4.48-13.2 0-8.47-4.48-13.2-4.49-4.73-12.46-4.73m30.96 37.18h-4.01l14.79-38.5h3.41l14.8 38.5h-4.02l-6.82-18.04h-12.48zm11.5-35.64h-.33l-5.12 16.28h11.61zm23.04 34.43.33-3.3h.33q2.15 1.87 4.84 2.91 2.7 1.05 5.34 1.05 3.74 0 6.05-2.06 2.31-2.07 2.31-5.53 0-1.93-.85-3.58-.86-1.65-2.81-3.35-1.95-1.71-5.36-3.69-2.37-1.37-4.51-2.88-2.15-1.52-3.52-3.52-1.38-2.01-1.38-4.82 0-4.18 3.03-6.73 3.02-2.56 7.97-2.56 2.2 0 4.73.47 2.53.46 3.91 1.18l-.28 3.08h-.33q-3.13-3.41-8.03-3.41-3.52 0-5.66 1.79-2.15 1.78-2.15 4.81 0 2.25 1.19 3.88 1.18 1.62 3.05 2.91 1.87 1.29 4.01 2.5 2.48 1.43 4.82 3.03 2.33 1.59 3.85 3.82 1.51 2.23 1.51 5.58 0 3.08-1.43 5.42t-4.04 3.66q-2.62 1.32-6.08 1.32-2.2 0-5.17-.55-2.97-.55-5.67-1.43m36.96 1.21h-3.74v-38.5h3.74v17.82h23.1v-17.82h3.74v38.5h-3.74v-19.36h-23.1z"/>
    </g>
</svg>